<svg fill="none" height="72" viewBox="0 0 75 72" width="75" xmlns="http://www.w3.org/2000/svg"><g clip-rule="evenodd" fill="#81b3d2" fill-rule="evenodd"><path d="m45.656 65.033h-16v-23.823h16zm-2.938-20.899h-10.125v17.976h10.125z"/><path d="m72.771 39.253 2.076-2.068-9.908-9.865v-27.32h-13.812v13.567l-13.627-13.567-37.348007 37.185 2.076997 2.068 7.83201-7.795v37.618h-3.93701v2.924h63.87501v-2.924h-5.059v-37.618zm-10.769 29.823h-49.003v-40.542l24.501-24.385 24.502 24.385zm-7.938-52.584 7.938 7.902v-21.47h-7.938z"/><path d="m37.656 34.7929c-4.28 0-7.75-3.452-7.75-7.713 0-4.259 3.469-7.713 7.75-7.713 4.279 0 7.75 3.454 7.75 7.713 0 4.261-3.471 7.713-7.75 7.713zm4.969-7.713c0-2.731-2.225-4.945-4.969-4.945-2.745 0-4.97 2.214-4.97 4.945 0 2.732 2.224 4.948 4.97 4.948 2.744 0 4.969-2.216 4.969-4.948zm-25.564 14.13h3v3.919h-3zm8.938 0h-3v3.919h3zm-8.938 5.972h3v3.919h-3zm8.938 0h-3v3.919h3zm22.999-5.972h3v3.919h-3zm8.938 0h-3v3.919h3zm-8.938 5.972h3v3.919h-3zm8.938 0h-3v3.919h3z"/></g></svg>