<svg width="19" height="21" fill="none" xmlns="http://www.w3.org/2000/svg"><path opacity=".3" d="M9.5 19.09c-5.247 0-9.5-4.274-9.5-9.545v1.91C0 16.724 4.253 21 9.5 21c5.246 0 9.5-4.274 9.5-9.546V9.545c0 5.271-4.254 9.546-9.5 9.546z" fill="#ABABAB"/><path d="M9.5 19.09c5.247 0 9.5-4.273 9.5-9.545C19 4.274 14.747 0 9.5 0S0 4.274 0 9.545c0 5.272 4.253 9.546 9.5 9.546z" fill="#fff"/><path d="M9.5 11.454c1.05 0 1.9-.854 1.9-1.909 0-1.054-.85-1.909-1.9-1.909-1.05 0-1.9.855-1.9 1.91 0 1.054.85 1.909 1.9 1.909z" fill="#ABABAB"/></svg>